# xmcd
#
# Track frame offsets: 
#        150
#        18206
#        32477
#        50593
#        61211
#        78262
#        91894
#        104863
#        123842
#        143452
#        161335
#        176146
#        192904
#        206796
#        224614
#        237768
#
# Disc length: 3350 seconds
#
# Revision: 4
# Processed by: cddbd v1.5.2PL0 Copyright (c) Steve Scherf et al.
# Submitted via: ExactAudioCopyFreeDBPlugin 1.0
#
DISCID=d70d1410
DTITLE=Wise Guys - läuft bei euch
DYEAR=2015
DGENRE=A Cappella
TTITLE0=A cappella
TTITLE1=Selfie
TTITLE2=Party unter Palmen
TTITLE3=Der Rock 'n' Roll ist tot
TTITLE4=Das Lied bei deinem ersten Kuss
TTITLE5=Lasst die Sau raus!
TTITLE6=Liebelein
TTITLE7=Die wahren Helden
TTITLE8=Tim
TTITLE9=Du fehlst mir so
TTITLE10=Gaffen
TTITLE11=Wo bist du?
TTITLE12=Teufelskreis
TTITLE13=Du stehst im Sturm
TTITLE14=Warten
TTITLE15=Sie klatscht auf die 1 und die 3
EXTD=
EXTT0=
EXTT1=
EXTT2=
EXTT3=
EXTT4=
EXTT5=
EXTT6=
EXTT7=
EXTT8=
EXTT9=
EXTT10=
EXTT11=
EXTT12=
EXTT13=
EXTT14=
EXTT15=
PLAYORDER=
